<mxfile host="app.diagrams.net" modified="2023-12-02T12:52:39.586Z" agent="Mozilla/5.0 (Windows NT 10.0; Win64; x64) AppleWebKit/537.36 (KHTML, like Gecko) Chrome/119.0.0.0 Safari/537.36" etag="IN09Nd66Xl73Nf92ulXL" version="22.1.5" type="github">
  <diagram id="C5RBs43oDa-KdzZeNtuy" name="Page-1">
    <mxGraphModel dx="1295" dy="1416" grid="1" gridSize="10" guides="1" tooltips="1" connect="1" arrows="1" fold="1" page="1" pageScale="1" pageWidth="827" pageHeight="1169" math="0" shadow="0">
      <root>
        <mxCell id="WIyWlLk6GJQsqaUBKTNV-0" />
        <mxCell id="WIyWlLk6GJQsqaUBKTNV-1" parent="WIyWlLk6GJQsqaUBKTNV-0" />
        <mxCell id="qgeLAfWknjctyuqNF3rM-0" value="App UI" style="rounded=1;whiteSpace=wrap;html=1;fontSize=16;" vertex="1" parent="WIyWlLk6GJQsqaUBKTNV-1">
          <mxGeometry x="180" y="190" width="120" height="60" as="geometry" />
        </mxCell>
        <mxCell id="qgeLAfWknjctyuqNF3rM-2" value="Browse Service" style="rounded=1;whiteSpace=wrap;html=1;fontSize=16;" vertex="1" parent="WIyWlLk6GJQsqaUBKTNV-1">
          <mxGeometry x="180" y="320" width="120" height="60" as="geometry" />
        </mxCell>
        <mxCell id="qgeLAfWknjctyuqNF3rM-3" value="" style="endArrow=classic;html=1;rounded=0;fontSize=12;startSize=8;endSize=8;curved=1;exitX=0.5;exitY=0;exitDx=0;exitDy=0;" edge="1" parent="WIyWlLk6GJQsqaUBKTNV-1" source="qgeLAfWknjctyuqNF3rM-2" target="qgeLAfWknjctyuqNF3rM-0">
          <mxGeometry width="50" height="50" relative="1" as="geometry">
            <mxPoint x="280" y="400" as="sourcePoint" />
            <mxPoint x="330" y="350" as="targetPoint" />
          </mxGeometry>
        </mxCell>
        <mxCell id="qgeLAfWknjctyuqNF3rM-4" value="Filter System" style="rounded=1;whiteSpace=wrap;html=1;fontSize=16;" vertex="1" parent="WIyWlLk6GJQsqaUBKTNV-1">
          <mxGeometry x="40" y="420" width="120" height="60" as="geometry" />
        </mxCell>
        <mxCell id="qgeLAfWknjctyuqNF3rM-5" value="Search" style="rounded=1;whiteSpace=wrap;html=1;fontSize=16;" vertex="1" parent="WIyWlLk6GJQsqaUBKTNV-1">
          <mxGeometry x="180" y="420" width="120" height="60" as="geometry" />
        </mxCell>
        <mxCell id="qgeLAfWknjctyuqNF3rM-6" value="Login" style="rounded=1;whiteSpace=wrap;html=1;fontSize=16;" vertex="1" parent="WIyWlLk6GJQsqaUBKTNV-1">
          <mxGeometry x="320" y="420" width="120" height="60" as="geometry" />
        </mxCell>
        <mxCell id="qgeLAfWknjctyuqNF3rM-7" value="" style="endArrow=classic;html=1;rounded=0;fontSize=12;startSize=8;endSize=8;curved=1;exitX=0.5;exitY=0;exitDx=0;exitDy=0;" edge="1" parent="WIyWlLk6GJQsqaUBKTNV-1" source="qgeLAfWknjctyuqNF3rM-4" target="qgeLAfWknjctyuqNF3rM-2">
          <mxGeometry width="50" height="50" relative="1" as="geometry">
            <mxPoint x="280" y="400" as="sourcePoint" />
            <mxPoint x="330" y="350" as="targetPoint" />
          </mxGeometry>
        </mxCell>
        <mxCell id="qgeLAfWknjctyuqNF3rM-8" value="" style="endArrow=classic;html=1;rounded=0;fontSize=12;startSize=8;endSize=8;curved=1;exitX=0.5;exitY=0;exitDx=0;exitDy=0;" edge="1" parent="WIyWlLk6GJQsqaUBKTNV-1" source="qgeLAfWknjctyuqNF3rM-5" target="qgeLAfWknjctyuqNF3rM-2">
          <mxGeometry width="50" height="50" relative="1" as="geometry">
            <mxPoint x="110" y="430" as="sourcePoint" />
            <mxPoint x="190" y="390" as="targetPoint" />
          </mxGeometry>
        </mxCell>
        <mxCell id="qgeLAfWknjctyuqNF3rM-9" value="" style="endArrow=classic;html=1;rounded=0;fontSize=12;startSize=8;endSize=8;curved=1;exitX=0.5;exitY=0;exitDx=0;exitDy=0;" edge="1" parent="WIyWlLk6GJQsqaUBKTNV-1" source="qgeLAfWknjctyuqNF3rM-6" target="qgeLAfWknjctyuqNF3rM-2">
          <mxGeometry width="50" height="50" relative="1" as="geometry">
            <mxPoint x="250" y="430" as="sourcePoint" />
            <mxPoint x="250" y="390" as="targetPoint" />
          </mxGeometry>
        </mxCell>
        <mxCell id="qgeLAfWknjctyuqNF3rM-10" value="Database" style="rounded=1;whiteSpace=wrap;html=1;fontSize=16;" vertex="1" parent="WIyWlLk6GJQsqaUBKTNV-1">
          <mxGeometry x="30" y="790" width="812.5" height="60" as="geometry" />
        </mxCell>
        <mxCell id="qgeLAfWknjctyuqNF3rM-11" value="" style="endArrow=classic;html=1;rounded=0;fontSize=12;startSize=8;endSize=8;curved=1;exitX=0.086;exitY=0.167;exitDx=0;exitDy=0;exitPerimeter=0;" edge="1" parent="WIyWlLk6GJQsqaUBKTNV-1" source="qgeLAfWknjctyuqNF3rM-10" target="qgeLAfWknjctyuqNF3rM-4">
          <mxGeometry width="50" height="50" relative="1" as="geometry">
            <mxPoint x="110" y="430" as="sourcePoint" />
            <mxPoint x="190" y="390" as="targetPoint" />
          </mxGeometry>
        </mxCell>
        <mxCell id="qgeLAfWknjctyuqNF3rM-12" value="" style="endArrow=classic;html=1;rounded=0;fontSize=12;startSize=8;endSize=8;curved=1;exitX=0.25;exitY=0;exitDx=0;exitDy=0;" edge="1" parent="WIyWlLk6GJQsqaUBKTNV-1" source="qgeLAfWknjctyuqNF3rM-10" target="qgeLAfWknjctyuqNF3rM-5">
          <mxGeometry width="50" height="50" relative="1" as="geometry">
            <mxPoint x="163" y="550" as="sourcePoint" />
            <mxPoint x="128" y="490" as="targetPoint" />
          </mxGeometry>
        </mxCell>
        <mxCell id="qgeLAfWknjctyuqNF3rM-14" value="Admin Panel" style="rounded=1;whiteSpace=wrap;html=1;fontSize=16;" vertex="1" parent="WIyWlLk6GJQsqaUBKTNV-1">
          <mxGeometry x="575" y="420" width="120" height="60" as="geometry" />
        </mxCell>
        <mxCell id="qgeLAfWknjctyuqNF3rM-19" value="Admin Service" style="rounded=1;whiteSpace=wrap;html=1;fontSize=16;" vertex="1" parent="WIyWlLk6GJQsqaUBKTNV-1">
          <mxGeometry x="575" y="500" width="120" height="60" as="geometry" />
        </mxCell>
        <mxCell id="qgeLAfWknjctyuqNF3rM-20" value="Admin Service" style="rounded=1;whiteSpace=wrap;html=1;fontSize=16;" vertex="1" parent="WIyWlLk6GJQsqaUBKTNV-1">
          <mxGeometry x="575" y="580" width="120" height="60" as="geometry" />
        </mxCell>
        <mxCell id="qgeLAfWknjctyuqNF3rM-21" value="Editor" style="rounded=1;whiteSpace=wrap;html=1;fontSize=16;" vertex="1" parent="WIyWlLk6GJQsqaUBKTNV-1">
          <mxGeometry x="425" y="690" width="120" height="60" as="geometry" />
        </mxCell>
        <mxCell id="qgeLAfWknjctyuqNF3rM-22" value="Add" style="rounded=1;whiteSpace=wrap;html=1;fontSize=16;" vertex="1" parent="WIyWlLk6GJQsqaUBKTNV-1">
          <mxGeometry x="575" y="690" width="120" height="60" as="geometry" />
        </mxCell>
        <mxCell id="qgeLAfWknjctyuqNF3rM-23" value="Delete" style="rounded=1;whiteSpace=wrap;html=1;fontSize=16;" vertex="1" parent="WIyWlLk6GJQsqaUBKTNV-1">
          <mxGeometry x="715" y="690" width="120" height="60" as="geometry" />
        </mxCell>
        <mxCell id="qgeLAfWknjctyuqNF3rM-24" value="" style="endArrow=classic;html=1;rounded=0;fontSize=12;startSize=8;endSize=8;curved=1;entryX=0.25;entryY=1;entryDx=0;entryDy=0;" edge="1" parent="WIyWlLk6GJQsqaUBKTNV-1" source="qgeLAfWknjctyuqNF3rM-10" target="qgeLAfWknjctyuqNF3rM-21">
          <mxGeometry width="50" height="50" relative="1" as="geometry">
            <mxPoint x="510" y="490" as="sourcePoint" />
            <mxPoint x="500" y="680" as="targetPoint" />
          </mxGeometry>
        </mxCell>
        <mxCell id="qgeLAfWknjctyuqNF3rM-26" value="" style="endArrow=classic;html=1;rounded=0;fontSize=12;startSize=8;endSize=8;curved=1;entryX=0.5;entryY=1;entryDx=0;entryDy=0;exitX=0.75;exitY=0;exitDx=0;exitDy=0;" edge="1" parent="WIyWlLk6GJQsqaUBKTNV-1" source="qgeLAfWknjctyuqNF3rM-10" target="qgeLAfWknjctyuqNF3rM-22">
          <mxGeometry width="50" height="50" relative="1" as="geometry">
            <mxPoint x="310" y="675" as="sourcePoint" />
            <mxPoint x="560" y="570" as="targetPoint" />
          </mxGeometry>
        </mxCell>
        <mxCell id="qgeLAfWknjctyuqNF3rM-27" value="" style="endArrow=classic;html=1;rounded=0;fontSize=12;startSize=8;endSize=8;curved=1;entryX=0.25;entryY=1;entryDx=0;entryDy=0;exitX=0.884;exitY=0;exitDx=0;exitDy=0;exitPerimeter=0;" edge="1" parent="WIyWlLk6GJQsqaUBKTNV-1" source="qgeLAfWknjctyuqNF3rM-10" target="qgeLAfWknjctyuqNF3rM-23">
          <mxGeometry width="50" height="50" relative="1" as="geometry">
            <mxPoint x="310" y="680" as="sourcePoint" />
            <mxPoint x="680" y="560" as="targetPoint" />
          </mxGeometry>
        </mxCell>
        <mxCell id="qgeLAfWknjctyuqNF3rM-28" value="" style="endArrow=classic;html=1;rounded=0;fontSize=12;startSize=8;endSize=8;curved=1;entryX=0.5;entryY=1;entryDx=0;entryDy=0;" edge="1" parent="WIyWlLk6GJQsqaUBKTNV-1" source="qgeLAfWknjctyuqNF3rM-22" target="qgeLAfWknjctyuqNF3rM-20">
          <mxGeometry width="50" height="50" relative="1" as="geometry">
            <mxPoint x="404" y="890" as="sourcePoint" />
            <mxPoint x="465" y="760" as="targetPoint" />
          </mxGeometry>
        </mxCell>
        <mxCell id="qgeLAfWknjctyuqNF3rM-29" value="" style="endArrow=classic;html=1;rounded=0;fontSize=12;startSize=8;endSize=8;curved=1;exitX=0.5;exitY=0;exitDx=0;exitDy=0;" edge="1" parent="WIyWlLk6GJQsqaUBKTNV-1" source="qgeLAfWknjctyuqNF3rM-21" target="qgeLAfWknjctyuqNF3rM-20">
          <mxGeometry width="50" height="50" relative="1" as="geometry">
            <mxPoint x="645" y="700" as="sourcePoint" />
            <mxPoint x="645" y="650" as="targetPoint" />
          </mxGeometry>
        </mxCell>
        <mxCell id="qgeLAfWknjctyuqNF3rM-30" value="" style="endArrow=classic;html=1;rounded=0;fontSize=12;startSize=8;endSize=8;curved=1;exitX=0.5;exitY=0;exitDx=0;exitDy=0;" edge="1" parent="WIyWlLk6GJQsqaUBKTNV-1" source="qgeLAfWknjctyuqNF3rM-23" target="qgeLAfWknjctyuqNF3rM-20">
          <mxGeometry width="50" height="50" relative="1" as="geometry">
            <mxPoint x="495" y="700" as="sourcePoint" />
            <mxPoint x="589" y="650" as="targetPoint" />
          </mxGeometry>
        </mxCell>
        <mxCell id="qgeLAfWknjctyuqNF3rM-31" value="" style="endArrow=classic;html=1;rounded=0;fontSize=12;startSize=8;endSize=8;curved=1;exitX=0.5;exitY=0;exitDx=0;exitDy=0;" edge="1" parent="WIyWlLk6GJQsqaUBKTNV-1" source="qgeLAfWknjctyuqNF3rM-20" target="qgeLAfWknjctyuqNF3rM-19">
          <mxGeometry width="50" height="50" relative="1" as="geometry">
            <mxPoint x="785" y="700" as="sourcePoint" />
            <mxPoint x="698" y="650" as="targetPoint" />
          </mxGeometry>
        </mxCell>
        <mxCell id="qgeLAfWknjctyuqNF3rM-32" value="" style="endArrow=classic;html=1;rounded=0;fontSize=12;startSize=8;endSize=8;curved=1;" edge="1" parent="WIyWlLk6GJQsqaUBKTNV-1" source="qgeLAfWknjctyuqNF3rM-19" target="qgeLAfWknjctyuqNF3rM-14">
          <mxGeometry width="50" height="50" relative="1" as="geometry">
            <mxPoint x="645" y="590" as="sourcePoint" />
            <mxPoint x="645" y="560" as="targetPoint" />
          </mxGeometry>
        </mxCell>
        <mxCell id="qgeLAfWknjctyuqNF3rM-33" value="" style="endArrow=classic;html=1;rounded=0;fontSize=12;startSize=8;endSize=8;curved=1;exitX=0;exitY=0.5;exitDx=0;exitDy=0;entryX=1;entryY=0.5;entryDx=0;entryDy=0;" edge="1" parent="WIyWlLk6GJQsqaUBKTNV-1" source="qgeLAfWknjctyuqNF3rM-14" target="qgeLAfWknjctyuqNF3rM-6">
          <mxGeometry width="50" height="50" relative="1" as="geometry">
            <mxPoint x="410" y="480" as="sourcePoint" />
            <mxPoint x="460" y="430" as="targetPoint" />
          </mxGeometry>
        </mxCell>
        <mxCell id="qgeLAfWknjctyuqNF3rM-37" value="" style="shape=actor;whiteSpace=wrap;html=1;fontSize=16;" vertex="1" parent="WIyWlLk6GJQsqaUBKTNV-1">
          <mxGeometry x="220" y="100" width="40" height="60" as="geometry" />
        </mxCell>
        <mxCell id="qgeLAfWknjctyuqNF3rM-38" value="" style="shape=actor;whiteSpace=wrap;html=1;fontSize=16;" vertex="1" parent="WIyWlLk6GJQsqaUBKTNV-1">
          <mxGeometry x="615" y="320" width="40" height="60" as="geometry" />
        </mxCell>
        <mxCell id="qgeLAfWknjctyuqNF3rM-39" value="User" style="text;html=1;strokeColor=none;fillColor=none;align=center;verticalAlign=middle;whiteSpace=wrap;rounded=0;fontSize=16;" vertex="1" parent="WIyWlLk6GJQsqaUBKTNV-1">
          <mxGeometry x="210" y="160" width="60" height="30" as="geometry" />
        </mxCell>
        <mxCell id="qgeLAfWknjctyuqNF3rM-40" value="Administrator" style="text;html=1;strokeColor=none;fillColor=none;align=center;verticalAlign=middle;whiteSpace=wrap;rounded=0;fontSize=16;" vertex="1" parent="WIyWlLk6GJQsqaUBKTNV-1">
          <mxGeometry x="605" y="390" width="60" height="30" as="geometry" />
        </mxCell>
      </root>
    </mxGraphModel>
  </diagram>
</mxfile>
